<?xml version="1.0" standalone="no"?>
<!DOCTYPE svg PUBLIC "-//W3C//DTD SVG 20010904//EN"
 "http://www.w3.org/TR/2001/REC-SVG-20010904/DTD/svg10.dtd">
<svg version="1.0" xmlns="http://www.w3.org/2000/svg"
 width="32.000000pt" height="32.000000pt" viewBox="0 0 32.000000 32.000000"
 preserveAspectRatio="xMidYMid meet">

<g transform="translate(0.000000,32.000000) scale(0.100000,-0.100000)"
fill="#000000" stroke="none">
<path d="M150 270 c0 -17 -7 -20 -48 -20 -26 0 -53 -5 -60 -12 -7 -7 -12 -43
-12 -90 0 -66 3 -79 19 -88 21 -11 199 -14 225 -4 13 5 16 23 16 88 0 50 -5
87 -12 94 -7 7 -34 12 -60 12 -41 0 -48 3 -48 20 0 11 -4 20 -10 20 -5 0 -10
-9 -10 -20z m120 -73 c0 -48 -36 -67 -78 -41 -29 17 -32 17 -57 0 -38 -25 -85
-6 -85 34 0 14 3 30 7 33 3 4 53 7 110 7 l103 0 0 -33z m-74 -63 c20 -14 30
-15 49 -6 24 11 25 10 25 -23 l0 -35 -110 0 -110 0 0 35 c0 39 0 39 34 24 19
-9 29 -8 47 5 29 20 34 20 65 0z"/>
</g>
</svg>
